<?xml version="1.0" encoding="UTF-8" standalone="no"?>
<!-- Created with Inkscape (http://www.inkscape.org/) -->

<svg
   width="105mm"
   height="43mm"
   viewBox="0 0 105 43"
   version="1.1"
   id="svg793"
   xmlns="http://www.w3.org/2000/svg"
   xmlns:svg="http://www.w3.org/2000/svg">
  <defs
     id="defs790">
    <clipPath
       clipPathUnits="userSpaceOnUse"
       id="clipPath18">
      <path
         d="M -9,-9 H 265 V 151 H -9 Z"
         clip-rule="evenodd"
         id="path16" />
    </clipPath>
  </defs>
  <g
     id="layer1">
    <g
       id="g12"
       transform="matrix(0.55233653,0,0,-0.55233653,-17.05108,60.584036)">
      <g
         id="g14"
         clip-path="url(#clipPath18)"
         style="display:inline">
        <g
           id="g20">
          <path
             d="M -9.1947,149.8524 H 262.9312 V -8.8877 H -9.1947 Z"
             style="display:none;fill:#ffffff;fill-opacity:1;fill-rule:evenodd;stroke:none"
             id="path22" />
          <g
             id="g24"
             style="display:inline">
            <g
               id="g26">
              <path
                 d="m 46.0809,89.1238 c 0.0116,0.0695 0.0521,0.1043 0.1216,0.1043 H 61.45 c 0.0391,-0.0065 0.0672,-0.0204 0.0845,-0.0419 L 49.9714,64.8434 h -3.7689 c -0.0794,0 -0.1216,0.0351 -0.1216,0.1046 z"
                 style="fill:#ed1c24;fill-opacity:1;fill-rule:nonzero;stroke:none"
                 id="path28" />
              <path
                 d="m 78.7158,89.1238 c -0.0116,0.0695 -0.0521,0.1043 -0.1216,0.1043 H 63.3467 C 63.3076,89.2216 63.2795,89.2077 63.2622,89.1862 L 74.8253,64.8434 h 3.7689 c 0.0794,0 0.1216,0.0351 0.1216,0.1046 z"
                 style="fill:#ed1c24;fill-opacity:1;fill-rule:nonzero;stroke:none"
                 id="path30" />
              <path
                 d="m 129.0892,64.8434 c -4.2732,9.0343 -6.7348,14.2013 -7.3794,15.4902 -2.8041,5.8405 -4.2032,8.8015 -4.2032,8.8945 h 8.4183 l 6.0208,-12.4823 c 0.0232,0.0113 1.0627,2.1189 3.1118,6.3224 1.7825,3.8375 2.7754,5.8872 2.9787,6.1599 h 8.3837 v -0.0348 c -0.4181,-0.929 -2.6591,-5.6257 -6.7175,-14.0911 -2.9146,-6.1716 -4.5575,-9.591 -4.9289,-10.2588 z m 19.0386,24.2804 c 0.0116,0.0695 0.0525,0.1043 0.1219,0.1043 h 28.6929 c 0.0697,-0.0113 0.1045,-0.0462 0.1045,-0.1043 v -6.4446 c 0,-0.0697 -0.0348,-0.1043 -0.1045,-0.1043 h -17.3129 c 0.3279,-0.6905 0.6797,-1.4335 1.0564,-2.2297 h 16.2565 c 0.0697,-0.0116 0.1045,-0.0465 0.1045,-0.1046 V 73.796 c 0,-0.0697 -0.0348,-0.1046 -0.1045,-0.1046 h -13.0774 c 0.3742,-0.7823 0.7242,-1.5142 1.0494,-2.1945 h 12.028 c 0.0697,-0.0117 0.1045,-0.0463 0.1045,-0.1046 V 64.948 c 0,-0.0695 -0.0348,-0.1046 -0.1045,-0.1046 h -17.2727 v 0.0351 c -0.2724,0.6052 -1.3195,2.8114 -3.1393,6.6184 -0.3161,0.6613 -0.6554,1.3705 -1.0177,2.1279 v 9e-4 l -2.5605,5.3436 c -2.6975,5.7115 -4.3053,9.0654 -4.8246,10.0632 z m 37.9298,-6.5489 v -11.078 h 8.1978 c 2.7,0 4.5579,1.2889 5.5678,3.8729 0.18,0.5684 0.273,1.1319 0.273,1.7008 0,2.2295 -1.1497,3.9189 -3.4427,5.0627 -0.7375,0.2962 -1.5389,0.4416 -2.3981,0.4416 z m -7.211,6.6532 h 18.254 c 1.6894,-0.1681 3.3902,-0.8073 5.1029,-1.9043 1.5038,-1.0332 2.6943,-2.2351 3.577,-3.6054 0.9224,-1.4397 1.5324,-3.0597 1.84,-4.8654 l 0.0352,-0.54 v -2.3453 c 0,-1.3063 -0.5576,-3.0136 -1.6665,-5.1208 -1.4284,-2.5081 -3.7857,-4.3427 -7.066,-5.51 -0.7253,-0.18 -1.4859,-0.3484 -2.2756,-0.4935 h -17.801 c -0.0695,0 -0.1043,0.0351 -0.1043,0.1046 v 24.1758 c 0.0113,0.0695 0.0465,0.1043 0.1043,0.1043 z M 150.6212,71.4969 h -2.0526 v -3 h 2.0526 z m 2.7065,-3 v 3 h -2.0529 v -3 z m -2.0529,-3.6535 h 2.0529 v 2.9999 h -2.0529 z m -2.7062,0 h 2.0526 v 2.9999 h -2.0526 z m -28.5687,6.6535 h -2.0528 v -3 h 2.0528 z m 2.7062,-3 v 3 h -2.0525 v -3 z m -2.0525,-3.6535 h 2.0525 v 2.9999 h -2.0525 z m -2.7065,0 h 2.0528 v 2.9999 h -2.0528 z M 86.8992,89.1238 c 0.0113,0.0695 0.0521,0.1043 0.1216,0.1043 h 28.6931 c 0.0394,-0.0065 0.0672,-0.0204 0.0848,-0.0419 -1.1832,-2.501 -2.2272,-4.7047 -3.1315,-6.6113 H 94.284 v -2.2297 h 17.3242 c -1.722,-3.6232 -2.7791,-5.8266 -3.1694,-6.6073 l -0.0221,-0.0465 H 94.284 v -2.1945 h 13.0796 c -2.0863,-4.3578 -3.1283,-6.5733 -3.1283,-6.6535 H 87.0208 c -0.0811,0 -0.1216,0.0351 -0.1216,0.1046 z"
                 style="fill:#2745a1;fill-opacity:1;fill-rule:nonzero;stroke:none"
                 id="path32" />
            </g>
            <path
               d="m 69.2974,56.003 v -1.3709 h 1.7297 v -0.7075 h -1.7297 v -1.398 h 2.1946 v -0.7351 h -3.1175 v 4.9431 H 71.492 V 56.003 Z m 9.8717,0.7316 -1.9962,-4.9431 h -0.8308 l -1.9964,4.9431 h 0.7384 c 0.0799,0 0.1448,-0.0193 0.195,-0.0581 0.0499,-0.0389 0.0876,-0.089 0.1128,-0.1505 l 1.1656,-3.015 c 0.0389,-0.0981 0.0763,-0.2052 0.1117,-0.3226 0.0352,-0.1173 0.0683,-0.2403 0.1004,-0.3679 0.0272,0.1276 0.057,0.2506 0.0887,0.3679 0.032,0.1174 0.0672,0.2245 0.106,0.3226 l 1.1588,3.015 c 0.0182,0.0524 0.0547,0.1003 0.1083,0.1437 0.0536,0.0433 0.1185,0.0649 0.1959,0.0649 z m 4.0643,-0.7316 v -1.3709 h 1.7297 v -0.7075 h -1.7297 v -1.398 h 2.1946 v -0.7351 h -3.1175 v 4.9431 H 85.428 V 56.003 Z m 7.1303,-1.6203 c 0.1732,0 0.3246,0.0215 0.4532,0.0649 0.129,0.0434 0.235,0.1037 0.3181,0.18 0.083,0.0765 0.1448,0.1664 0.1857,0.2713 0.0411,0.1048 0.0615,0.2199 0.0615,0.3452 0,0.2506 -0.0819,0.4434 -0.2472,0.5777 -0.1653,0.1344 -0.4181,0.2019 -0.7577,0.2019 h -0.5879 v -1.641 z m 2.3655,-2.5912 h -0.8308 c -0.1571,0 -0.271,0.0615 -0.3419,0.1846 l -1.0392,1.5828 c -0.0385,0.0593 -0.0808,0.1015 -0.1275,0.1265 -0.0468,0.0249 -0.1163,0.0377 -0.2075,0.0377 h -0.3929 v -1.9316 h -0.9196 v 4.9431 h 1.5075 c 0.335,0 0.6233,-0.0343 0.8637,-0.1038 0.2404,-0.0694 0.4374,-0.1675 0.5913,-0.2928 0.1539,-0.1253 0.2668,-0.2747 0.3396,-0.449 0.0729,-0.1743 0.1094,-0.3668 0.1094,-0.5766 0,-0.1664 -0.0238,-0.3234 -0.0728,-0.4716 -0.0491,-0.1483 -0.1196,-0.2827 -0.2121,-0.4034 -0.0924,-0.1208 -0.2063,-0.2268 -0.3418,-0.3178 -0.1355,-0.0913 -0.2906,-0.163 -0.4638,-0.2154 0.0593,-0.0343 0.114,-0.0743 0.1642,-0.1208 0.0501,-0.0467 0.0958,-0.1026 0.1366,-0.1664 z m 5.059,1.9143 V 51.7915 H 96.872 v 1.9143 l -1.8017,3.0288 h 0.8102 c 0.0799,0 0.1437,-0.0193 0.1905,-0.0581 0.0464,-0.0389 0.0853,-0.0879 0.1173,-0.1471 l 0.9023,-1.6509 c 0.0524,-0.0981 0.0992,-0.1905 0.1392,-0.277 0.0399,-0.0867 0.0751,-0.1732 0.1071,-0.2599 0.0295,0.0867 0.0638,0.1732 0.1023,0.2599 0.0389,0.0865 0.0834,0.1789 0.1336,0.277 l 0.8988,1.6509 c 0.0253,0.0501 0.063,0.0969 0.1128,0.1403 0.0502,0.0433 0.114,0.0649 0.1917,0.0649 h 0.8135 z m 10.9862,0.5573 c 0,-0.3623 -0.0604,-0.6951 -0.1811,-0.9981 -0.1208,-0.3033 -0.2906,-0.5641 -0.5094,-0.783 -0.2188,-0.2188 -0.4819,-0.3886 -0.7897,-0.5093 -0.3076,-0.1208 -0.6494,-0.1812 -1.0256,-0.1812 h -1.8833 v 4.9431 h 1.8833 c 0.3762,0 0.718,-0.0604 1.0256,-0.1823 0.3078,-0.1219 0.5709,-0.2917 0.7897,-0.5094 0.2188,-0.2177 0.3886,-0.4785 0.5094,-0.7818 0.1207,-0.303 0.1811,-0.6358 0.1811,-0.998 z m -0.9433,0 c 0,0.2712 -0.0355,0.515 -0.1072,0.7304 -0.072,0.2152 -0.1755,0.3977 -0.3112,0.5468 -0.1355,0.1494 -0.2997,0.2634 -0.4921,0.343 -0.1928,0.08 -0.4102,0.1197 -0.652,0.1197 h -0.9604 v -3.4799 h 0.9604 c 0.2418,0 0.4592,0.0397 0.652,0.1197 0.1924,0.0796 0.3566,0.1947 0.4921,0.3441 0.1357,0.1491 0.2392,0.3317 0.3112,0.5468 0.0717,0.2154 0.1072,0.4581 0.1072,0.7294 z m 5.3047,1.7399 v -1.3709 h 1.7297 v -0.7075 h -1.7297 v -1.398 h 2.1946 v -0.7351 h -3.1175 v 4.9431 h 3.1175 V 56.003 Z m 9.089,-0.0239 h -1.4904 v -4.1876 h -0.9196 v 4.1876 h -1.4905 v 0.7555 h 3.9005 z m 5.4074,-2.3212 -0.6015,1.6443 c -0.0298,0.0729 -0.0604,0.1596 -0.0924,0.26 -0.0321,0.1 -0.0638,0.2083 -0.0958,0.3245 -0.0295,-0.1162 -0.0604,-0.2245 -0.0922,-0.3257 -0.032,-0.1014 -0.0626,-0.1904 -0.0924,-0.2656 l -0.5981,-1.6375 z m 1.6237,-1.8664 h -0.711 c -0.0796,0 -0.1448,0.0204 -0.1947,0.0604 -0.0502,0.04 -0.0879,0.089 -0.1128,0.1483 l -0.3694,1.0082 h -2.0474 l -0.3694,-1.0082 c -0.0181,-0.0525 -0.0536,-0.1004 -0.106,-0.1438 -0.0524,-0.0433 -0.1174,-0.0649 -0.1947,-0.0649 h -0.7181 l 1.9452,4.9431 h 0.9368 z m 4.0643,0 h -0.923 v 4.9431 h 0.923 z m 6.6277,0.7589 v -0.7589 h -2.8953 v 4.9431 h 0.9195 v -4.1842 z m 8.3406,0.4067 c 0.0502,0 0.0944,-0.0192 0.1333,-0.0581 l 0.3622,-0.3931 c -0.2004,-0.2484 -0.4464,-0.4386 -0.7395,-0.5709 -0.2928,-0.1321 -0.6449,-0.1982 -1.0551,-0.1982 -0.3668,0 -0.6962,0.0627 -0.989,0.188 -0.2928,0.1255 -0.5437,0.2999 -0.7509,0.5229 -0.2075,0.2234 -0.3659,0.4902 -0.4765,0.8 -0.1103,0.3101 -0.1661,0.6486 -0.1661,1.0154 0,0.3713 0.0592,0.712 0.1777,1.021 0.1185,0.3087 0.286,0.5743 0.5012,0.7977 0.2154,0.2233 0.472,0.3977 0.7705,0.5218 0.2984,0.1242 0.629,0.1857 0.9912,0.1857 0.36,0 0.6803,-0.0593 0.9596,-0.1777 0.2792,-0.1185 0.5161,-0.2736 0.712,-0.4649 l -0.3075,-0.4275 c -0.0185,-0.0272 -0.0411,-0.0513 -0.0695,-0.0717 -0.0286,-0.0204 -0.0686,-0.0306 -0.1185,-0.0306 -0.0343,0 -0.0697,0.0102 -0.106,0.0295 -0.0366,0.0192 -0.0765,0.0433 -0.1196,0.0717 -0.0434,0.0286 -0.0936,0.0592 -0.1505,0.0935 -0.057,0.0343 -0.1231,0.0661 -0.1982,0.0947 -0.0754,0.0283 -0.1618,0.0524 -0.261,0.0717 -0.0993,0.0193 -0.2143,0.0284 -0.3442,0.0284 -0.2211,0 -0.4226,-0.0386 -0.6063,-0.1174 -0.1834,-0.0785 -0.3416,-0.1925 -0.474,-0.3419 -0.1321,-0.1491 -0.2347,-0.3313 -0.3075,-0.5468 -0.0729,-0.2154 -0.1094,-0.4614 -0.1094,-0.7372 0,-0.2781 0.0399,-0.5253 0.1185,-0.7419 0.0785,-0.2165 0.1845,-0.3988 0.3191,-0.5468 0.1344,-0.1482 0.2929,-0.261 0.4751,-0.3396 0.1823,-0.0788 0.3782,-0.1185 0.5879,-0.1185 0.1253,0 0.2393,0.0068 0.3408,0.0205 0.1014,0.0136 0.1947,0.0354 0.2803,0.0649 0.0853,0.0297 0.1664,0.0683 0.2426,0.1151 0.0763,0.0467 0.1517,0.1037 0.2268,0.172 0.0227,0.0204 0.0468,0.0377 0.0717,0.0502 0.0253,0.0125 0.0513,0.0181 0.0788,0.0181 z m 8.3645,1.306 c 0,-0.3623 -0.0592,-0.6974 -0.1789,-1.0061 -0.1199,-0.3089 -0.2897,-0.5768 -0.5082,-0.8022 -0.2188,-0.2256 -0.4822,-0.4011 -0.7897,-0.5278 -0.3076,-0.1264 -0.6495,-0.1902 -1.0256,-0.1902 -0.3736,0 -0.7143,0.0638 -1.0222,0.1902 -0.3075,0.1267 -0.5709,0.3022 -0.7906,0.5278 -0.2199,0.2254 -0.3909,0.4933 -0.5116,0.8022 -0.1208,0.3087 -0.1814,0.6438 -0.1814,1.0061 0,0.3622 0.0606,0.6984 0.1814,1.0074 0.1207,0.3087 0.2917,0.5754 0.5116,0.8008 0.2197,0.2256 0.4831,0.4022 0.7906,0.5289 0.3079,0.1264 0.6486,0.1891 1.0222,0.1891 0.2506,0 0.4867,-0.0286 0.7075,-0.0867 0.2211,-0.0582 0.4241,-0.1401 0.6086,-0.2461 0.1845,-0.106 0.3509,-0.2347 0.4981,-0.3864 0.1468,-0.1513 0.2709,-0.3211 0.3736,-0.5079 0.1026,-0.1871 0.1811,-0.3898 0.2347,-0.6086 0.0535,-0.2189 0.0799,-0.449 0.0799,-0.6905 z m -0.9402,0 c 0,0.2712 -0.0363,0.515 -0.1095,0.7304 -0.0728,0.2152 -0.1766,0.3977 -0.3109,0.548 -0.1344,0.1505 -0.2974,0.2656 -0.4901,0.3452 -0.1925,0.08 -0.4102,0.1197 -0.6517,0.1197 -0.2415,0 -0.4581,-0.0397 -0.6506,-0.1197 -0.1927,-0.0796 -0.3566,-0.1947 -0.4923,-0.3452 -0.1355,-0.1503 -0.2404,-0.3328 -0.3133,-0.548 -0.0731,-0.2154 -0.1094,-0.4592 -0.1094,-0.7304 0,-0.2713 0.0363,-0.514 0.1094,-0.7294 0.0729,-0.2151 0.1778,-0.3977 0.3133,-0.5468 0.1357,-0.1494 0.2996,-0.2645 0.4923,-0.3441 0.1925,-0.08 0.4091,-0.1197 0.6506,-0.1197 0.2415,0 0.4592,0.0397 0.6517,0.1197 0.1927,0.0796 0.3557,0.1947 0.4901,0.3441 0.1343,0.1491 0.2381,0.3317 0.3109,0.5468 0.0732,0.2154 0.1095,0.4581 0.1095,0.7294 z m 6.368,-1.7297 c 0.1777,0 0.3373,0.0294 0.4776,0.0887 0.1401,0.0592 0.2574,0.1426 0.3532,0.2497 0.0955,0.1072 0.1698,0.237 0.2211,0.3898 0.051,0.1525 0.0763,0.3234 0.0763,0.5128 v 2.9602 h 0.9195 v -2.9602 c 0,-0.2943 -0.0467,-0.5653 -0.1414,-0.815 -0.0944,-0.2494 -0.2302,-0.4649 -0.4068,-0.646 -0.1766,-0.1811 -0.392,-0.3226 -0.6449,-0.4238 -0.2528,-0.1015 -0.5377,-0.1528 -0.8546,-0.1528 -0.3189,0 -0.6049,0.0513 -0.8581,0.1528 -0.2528,0.1012 -0.4671,0.2427 -0.6437,0.4238 -0.1766,0.1811 -0.3121,0.3966 -0.4068,0.646 -0.0947,0.2497 -0.1423,0.5207 -0.1423,0.815 v 2.9602 h 0.9196 v -2.9568 c 0,-0.1894 0.0261,-0.3603 0.0774,-0.5128 0.0513,-0.1528 0.1253,-0.2826 0.2222,-0.3909 0.0967,-0.1083 0.2152,-0.1928 0.3555,-0.252 0.14,-0.0593 0.2985,-0.0887 0.4762,-0.0887 z m 9.8821,4.2012 v -4.9431 h -0.4717 c -0.0728,0 -0.1332,0.0125 -0.1822,0.0366 -0.0491,0.0238 -0.097,0.0638 -0.1426,0.1208 l -2.581,3.2952 c 0.0139,-0.1505 0.0207,-0.2894 0.0207,-0.417 v -3.0356 h -0.8101 v 4.9431 h 0.4819 c 0.0388,0 0.0728,-0.0012 0.1015,-0.0046 0.0283,-0.0034 0.0535,-0.0102 0.0751,-0.0204 0.0215,-0.0105 0.0422,-0.0252 0.0626,-0.0445 0.0204,-0.0195 0.0434,-0.0456 0.0683,-0.0776 l 2.5912,-3.3089 c -0.007,0.0796 -0.0125,0.1584 -0.017,0.2358 -0.005,0.0774 -0.007,0.1494 -0.007,0.2155 v 3.0047 h 0.8101 z m 7.1819,-0.7555 h -1.4905 v -4.1876 h -0.9195 v 4.1876 h -1.4905 v 0.7555 h 3.9005 z m 5.8995,-0.1437 c -0.0273,-0.0476 -0.0559,-0.0819 -0.0865,-0.1034 -0.0309,-0.0219 -0.0695,-0.0332 -0.1151,-0.0332 -0.0479,0 -0.0992,0.0181 -0.155,0.0536 -0.0559,0.0354 -0.1231,0.074 -0.2005,0.1173 -0.0776,0.0434 -0.1675,0.0831 -0.2712,0.1185 -0.1038,0.0355 -0.2268,0.0525 -0.368,0.0525 -0.1278,0 -0.2395,-0.0148 -0.335,-0.0457 -0.0958,-0.0306 -0.1755,-0.074 -0.2404,-0.1287 -0.0652,-0.0547 -0.114,-0.1196 -0.146,-0.1958 -0.032,-0.0766 -0.0479,-0.1608 -0.0479,-0.252 0,-0.1163 0.0332,-0.2132 0.0981,-0.2906 0.0649,-0.0774 0.1505,-0.1434 0.2574,-0.1981 0.1071,-0.0547 0.229,-0.1038 0.3659,-0.1472 0.1367,-0.0433 0.277,-0.0887 0.4204,-0.1377 0.1437,-0.0491 0.2838,-0.106 0.4204,-0.1709 0.1369,-0.065 0.2588,-0.1472 0.3659,-0.2464 0.1072,-0.0989 0.1936,-0.2208 0.2586,-0.3645 0.0649,-0.1434 0.0969,-0.3178 0.0969,-0.523 0,-0.2234 -0.0377,-0.432 -0.114,-0.6267 -0.0762,-0.1948 -0.1879,-0.3646 -0.335,-0.5094 -0.1468,-0.1446 -0.3271,-0.2586 -0.5389,-0.3419 -0.212,-0.083 -0.4547,-0.1253 -0.7282,-0.1253 -0.1573,0 -0.3121,0.0159 -0.4649,0.0468 -0.1528,0.0306 -0.2985,0.074 -0.4388,0.131 -0.14,0.0569 -0.2721,0.1252 -0.3954,0.2052 -0.123,0.0796 -0.2325,0.1686 -0.328,0.2664 l 0.2699,0.4411 c 0.0229,0.032 0.0524,0.0593 0.089,0.0808 0.0366,0.0218 0.0751,0.032 0.1162,0.032 0.057,0 0.1185,-0.0227 0.1845,-0.0694 0.0661,-0.0468 0.1449,-0.0992 0.2359,-0.1562 0.0913,-0.057 0.1984,-0.1083 0.3203,-0.1551 0.1219,-0.0465 0.2679,-0.0705 0.4388,-0.0705 0.2619,0 0.4649,0.0626 0.6083,0.1868 0.1437,0.1244 0.2154,0.3021 0.2154,0.5346 0,0.1298 -0.032,0.2358 -0.0969,0.3177 -0.0649,0.0822 -0.1514,0.1517 -0.2585,0.2075 -0.1072,0.0559 -0.2291,0.1026 -0.366,0.1412 -0.1366,0.0388 -0.2755,0.0811 -0.4169,0.1264 -0.1412,0.0457 -0.2804,0.1004 -0.417,0.1641 -0.1369,0.0638 -0.2588,0.1472 -0.366,0.2498 -0.1068,0.1023 -0.1924,0.2313 -0.2574,0.3849 -0.0649,0.1539 -0.098,0.343 -0.098,0.5687 0,0.18 0.0365,0.3554 0.1082,0.5263 0.0718,0.171 0.1755,0.3226 0.3124,0.4547 0.1367,0.1324 0.3053,0.2384 0.5057,0.3181 0.2007,0.0796 0.4309,0.1196 0.6905,0.1196 0.2917,0 0.5607,-0.0456 0.8068,-0.1366 0.2463,-0.0913 0.4558,-0.2189 0.629,-0.383 z"
               style="fill:#ed1c24;fill-opacity:1;fill-rule:nonzero;stroke:none"
               id="path34" />
          </g>
        </g>
      </g>
    </g>
  </g>
</svg>
